<svg id="Layer_1" data-name="Layer 1" xmlns="http://www.w3.org/2000/svg" viewBox="0 0 2462.04 2487.78"><defs><style>.cls-1{fill:#be9a6e;}.cls-2{fill:#fff;}.cls-3{fill:none;stroke:#fff;stroke-miterlimit:10;stroke-width:60px;}.cls-4{fill:#8195a6;}</style></defs><title>clubHub</title><path class="cls-1" d="M1643.7,1207l137.63-300.33,201.87,691.09S1619.8,1459.51,1643.7,1207Z" transform="translate(-800.03 -727.92)"/><path class="cls-2" d="M3262.08,1610.53c-7,4.82-13.6,8.72-20.06,12.44-3.21,1.77-6.41,3.65-9.54,5.22l-4.69,2.49c-1.56.84-3.1,1.56-4.64,2.35-6.16,3-12.21,5.83-18.17,8.42s-11.85,4.88-17.68,7.11a357.52,357.52,0,0,1-67.8,17.93c-11.09,1.87-22.17,2.82-33.19,4.29s-22,3.15-32.87,5.11-21.7,4.18-32.42,6.64-21.33,5.23-31.85,8.18a591.46,591.46,0,0,0-119.8,48.18,530.94,530.94,0,0,0-103.21,72.6,554.31,554.31,0,0,0-83.1,94.34c-12,17.35-23.38,35.32-33.76,54q-7.8,14-15,28.4c-2.36,4.83-4.78,9.63-7.05,14.52l-7.58,16c-10.5,22.36-21.38,44.58-32.31,66.81-5.56,11.09-11.1,22.18-16.72,33.24s-11.31,22.13-17.12,33.14c-11.62,22-23.36,44-35.64,65.87l-9.18,16.4-9.41,16.35-4.72,8.16-4.82,8.14-9.67,16.28q-19.64,32.51-40.79,64.65c-14.26,21.4-29.13,42.73-45.2,63.89l-6.14,7.93c-2.07,2.64-4.06,5.28-6.2,7.93-4.28,5.28-8.42,10.55-12.92,15.83-8.75,10.55-18.13,21.06-28.3,31.65l-3.82,4-4,4-4,4-4.25,4c-5.64,5.34-11.84,10.8-18.63,16.32l-5.32,4.19c-1.88,1.43-3.86,2.88-5.8,4.31-.93.69-2.08,1.47-3.15,2.21l-3.25,2.23c-.52.35-1.14.75-1.76,1.15l-1.84,1.17-1.84,1.17-.93.57-1,.63-4.28,2.48-1.2.66-1.27.69-2.57,1.35c-.53.27-1,.52,0,0l1.72-.94,1.34-.79.48-.29c.9-.58.62-.41.72-.48s0,0-.09.05l-.18.11-.36.22-1.14.76-2.93,2-7.22,5.09-4.51,3.16-3.13,2.15-2.25,1.48-1.63,1.05-1.19.74c-4.45,2.68-8.86,5.38-13.24,8.18q-13.12,8.38-25.9,17.64a566.56,566.56,0,0,0-49,39.74,540.67,540.67,0,0,0-44.11,44.83,506.51,506.51,0,0,0-38.24,49.39,481.21,481.21,0,0,0-31.54,53.52q-7,13.86-13.09,28.16t-11.18,29a471.94,471.94,0,0,0-16.64,60.26c-2.08,10.26-3.89,20.69-5.33,31-.42,2.58-.66,5.18-1,7.77s-.67,5.19-.91,7.79c-.46,5.2-1.1,10.4-1.5,15.62-3.9,41.75-6.09,84.2-7.49,129.57-.34,11.34-.67,22.88-.89,34.62l-.75,36c-.24,12.27-.46,24.81-.8,37.75s-.67,26.23-1.84,40.4a182.15,182.15,0,0,1-17.07-12.12c-1.38-1.06-2.67-2.17-4-3.27s-2.63-2.21-3.92-3.33-2.62-2.24-3.88-3.39l-3.75-3.48a289.6,289.6,0,0,1-27.53-30,326.7,326.7,0,0,1-23.29-33.22c-1.79-2.88-3.48-5.8-5.16-8.74s-3.36-5.9-4.92-8.9-3.22-6-4.69-9-3-6.1-4.41-9.18c-22.78-49.31-34.47-104.31-34.39-159.59,0-3.46,0-6.91.12-10.36l.37-10.37c.15-3.45.42-6.9.63-10.35s.41-6.91.76-10.35c1.16-13.83,2.76-27.44,4.77-41.1a627.26,627.26,0,0,1,17.71-81.15,619.75,619.75,0,0,1,67.5-152.21,660,660,0,0,1,47.94-67.88,698.75,698.75,0,0,1,55.59-61.2,718.75,718.75,0,0,1,62.22-54.17q16.35-12.64,33.54-24.4c5.73-3.91,11.54-7.76,17.4-11.49.35-.22,0,0-.24.13l-.67.43-.34.22h0l.18-.15.44-.32,2.89-2.15L2169,2389l4.48-3.27,2.59-1.84,3.15-2.16c1.37-.9,2.35-1.58,4.55-2.93l1.45-.89c.29-.19,1.5-.89,2.32-1.35s1.81-1,2.72-1.49c1.31-.69,1.18-.62,1-.53l-.56.27-.28.15a1.11,1.11,0,0,1-.2.11,1.49,1.49,0,0,0-.36.17l-.07,0,0,0,.07-.07.07-.06s0,0,.14-.1.32-.26.48-.38.29-.2.56-.44l1.46-1.17,1.77-1.51c2.54-2.24,5.44-4.82,8.53-7.92l2.31-2.28,2.38-2.47,2.39-2.48,2.43-2.65c6.5-7.06,13.12-14.82,19.73-23.06,3.32-4,6.59-8.34,9.88-12.54,1.65-2.1,3.27-4.34,4.91-6.5l4.89-6.55c26.06-35.45,50.83-74.42,74.76-114.19l8.89-15,4.45-7.53,4.37-7.6,8.79-15.19,8.66-15.33q17.31-30.69,34.08-62l16.69-31.36,16.47-31.57c5.48-10.54,10.85-21.17,16.29-31.74,2.73-5.28,5.38-10.62,8.06-15.95l8-16,8.44-16.68c3-6,6.23-12,9.43-17.94q9.71-17.83,20.32-35.26c7.05-11.62,14.52-23,22.24-34.3s15.78-22.34,24.17-33.2a706.45,706.45,0,0,1,54.19-62.2,665.78,665.78,0,0,1,61.54-55.35,658.36,658.36,0,0,1,67.86-47.19,672.51,672.51,0,0,1,72.81-38.11q18.66-8.39,37.72-15.64c12.69-4.83,25.51-9.21,38.4-13.27a752.35,752.35,0,0,1,78.05-20q39.33-7.78,78.9-11.5,19.76-1.89,39.5-2.83c6.58-.3,13.16-.58,19.74-.7s13.16,0,19.74.43a231.38,231.38,0,0,1,39.3,5.86q9.75,2.33,19.38,5.55c6.42,2.15,12.78,4.69,19.08,7.43s12.53,5.93,18.66,9.48A199.89,199.89,0,0,1,3228.9,1578c1.48,1.12,2.95,2.16,4.41,3.33l4.35,3.54c2.89,2.29,5.72,4.94,8.52,7.53A118.9,118.9,0,0,1,3262.08,1610.53Z" transform="translate(-800.03 -727.92)"/><path class="cls-2" d="M2191,1702.12c-.91-1.08-1.91-2.21-2.73-3.29s-1.71-2.19-2.46-3.25l-2.26-3.23c-.77-1.08-1.39-2.12-2.08-3.18l-2-3.19-1.8-3.13-1.79-3.14c-.59-1-1.09-2.07-1.64-3.11a156.84,156.84,0,0,1-9.95-24.19,142.21,142.21,0,0,1-6.67-45.09,132,132,0,0,1,7.16-40.74c4.63-12.72,9.65-25.35,15.15-37.88a579.16,579.16,0,0,1,38.58-73.94,460.37,460.37,0,0,1,52.73-69.82c20.48-22.15,44.26-43.07,72.29-60.7,7-4.43,14.28-8.58,21.79-12.49,3.74-2,7.58-3.84,11.44-5.66s7.82-3.55,11.85-5.18a277.61,277.61,0,0,1,50.46-15.39c8.74-1.74,17.61-3,26.51-3.92s17.84-1.24,26.73-1.23,17.72.61,26.45,1.49,17.3,2.27,25.72,4,16.68,3.73,24.68,6.15c4,1.14,7.94,2.49,11.9,3.77l5.81,2.06c1.94.69,3.87,1.39,5.75,2.14a349.79,349.79,0,0,1,43.14,20.09,418.14,418.14,0,0,1,38.49,23.92c1.51,1.06,3.06,2.1,4.55,3.17l4.45,3.22c3,2.14,5.88,4.34,8.78,6.54s5.74,4.4,8.57,6.63,5.61,4.49,8.37,6.76c11,9.06,21.57,18.4,31.75,27.88L2748,1405l2.16,2c.36.33.7.67,1.09,1l1.18,1,2.35,2c.82.67,1.7,1.33,2.54,2,1.65,1.34,3.51,2.65,5.32,4,.88.67,1.84,1.33,2.81,2l2.89,2,6,3.87c2.12,1.25,4.18,2.53,6.35,3.76s4.32,2.5,6.61,3.67c9,4.8,18.51,9.42,28.44,13.67a667.13,667.13,0,0,0,62.83,23c21.77,6.89,44.1,13.26,66.64,19.64l34,9.6,17.09,4.86c5.69,1.68,11.42,3.26,17.13,5,11.45,3.29,22.91,6.76,34.41,10.16s23,6.93,34.56,10.53l34.68,10.76a18.47,18.47,0,0,1,8.39,4.62,38.62,38.62,0,0,1,7.57,10.68c1.19,2.33,2.31,5.19,3.45,8l1.64,4.75c.54,1.71,1.05,3.54,1.58,5.31s1,3.94,1.52,5.91l.73,3.27.36,1.64c.12.55.23,1.21.35,1.82l1.38,7.4,1.26,8.79-3.36,8.22-3.23,6.83c-.27.56-.54,1.17-.8,1.68l-.79,1.49-1.58,3c-1,1.76-2.07,3.62-3.09,5.3s-2,3.2-3,4.71l-3,4.13c-1.94,2.4-3.88,4.84-5.76,6.75a38.08,38.08,0,0,1-10.82,8.07,20.14,20.14,0,0,1-10,1.91c-12.93-.09-25.83-.39-38.7-1s-25.73-1.55-38.58-2.71-25.65-2.69-38.44-4.55A794.51,794.51,0,0,1,2832,1607.82c-25.2-8.88-50.36-19-75.66-30.84-12.63-6-25.34-12.34-38-19.5a428.3,428.3,0,0,1-38.35-24c-3.21-2.3-6.41-4.55-9.62-7l-4.81-3.69-4.81-3.9-2.4-2c-.8-.67-1.6-1.39-2.4-2.07l-4.78-4.2-6.45-5.59c-8.25-7.07-16.67-13.71-25.17-19.88-2.12-1.54-4.25-3.08-6.4-4.52s-4.27-3-6.42-4.33-4.3-2.81-6.46-4.1l-3.23-2c-1.08-.66-2.16-1.26-3.24-1.9a258.43,258.43,0,0,0-25.87-13.15,182.84,182.84,0,0,0-25.27-8.82c-2.06-.59-4.09-1-6.12-1.5-2-.36-4-.88-6-1.16-4-.75-7.86-1.14-11.68-1.51s-7.53-.39-11.17-.38-7.2.33-10.69.72-6.91,1-10.29,1.69-6.72,1.69-10,2.71a122.92,122.92,0,0,0-19.89,8.26,175.14,175.14,0,0,0-20.12,12.18c-13.53,9.4-27.24,21.41-40.76,35.27a542.34,542.34,0,0,0-39.86,46.26c-13,16.78-25.71,34.69-38.06,53.34-3.09,4.66-6.11,9.39-9.19,14.12s-6,9.58-9.06,14.38a136.87,136.87,0,0,1-23.3,27,179.51,179.51,0,0,1-34.29,23.9,235,235,0,0,1-22.61,10.74c-1.05.43-2.07.87-3.16,1.29l-3.29,1.25-3.3,1.27-3.49,1.21c-1.19.41-2.29.84-3.54,1.23l-3.7,1.19c-1.22.41-2.59.78-3.87,1.17S2192.39,1701.73,2191,1702.12Z" transform="translate(-800.03 -727.92)"/><path class="cls-2" d="M1571.92,1788l-1.25-1.9-.82-1.28-1.43-2.29-2.56-4.22c-1.63-2.74-3.15-5.38-4.62-8-2.93-5.24-5.67-10.38-8.29-15.51-5.24-10.25-10-20.46-14.5-30.72a647.68,647.68,0,0,1-23.3-62.18,724.22,724.22,0,0,1-28.1-127.83,776.48,776.48,0,0,1-5.5-129.76,837.67,837.67,0,0,1,15.29-128,925.71,925.71,0,0,1,33.47-123.24c3.43-10,7.11-19.94,10.84-29.84s7.66-19.68,11.75-29.39q12.15-29.19,26-57.46A1210.72,1210.72,0,0,1,1639.49,927c21.9-35.28,45.38-69.34,70.09-102.28h0l52-96.76,71.81,102.3c.41.58.58.79.83,1.12l.67.86,1.24,1.59,2.34,3c1.52,2,3,3.93,4.46,5.89,2.9,3.88,5.67,7.75,8.42,11.63,5.47,7.73,10.66,15.51,15.75,23.33,10.13,15.64,19.62,31.49,28.66,47.54s17.63,32.29,25.76,48.71,15.9,33,23.31,49.73a1361.16,1361.16,0,0,1,71.42,206.69,1486.87,1486.87,0,0,1,39.05,214.55q1.45,13.55,2.67,27.11c.86,9,1.26,18.13,1.35,27.27,0,2.28,0,4.57,0,6.86s-.09,4.58-.19,6.88c-.15,4.59-.44,9.2-.76,13.8-.82,9.24-1.87,18.48-3.52,27.77s-3.66,18.6-6.23,27.93c-.67,2.34-1.3,4.67-2,7s-1.43,4.67-2.19,7l-2.44,7-2.63,7a264.24,264.24,0,0,1-12.88,28.08c-1.3,2.34-2.6,4.68-3.93,7-.63,1.17-1.38,2.34-2.1,3.51l-2.16,3.52c-.7,1.16-1.5,2.34-2.28,3.51l-2.35,3.52-2.52,3.52c-.88,1.17-1.81,2.35-2.72,3.52-1.1-1-2.24-2-3.32-3l-3.12-3-3-3c-1-1-2-2-2.88-3l-2.76-3c-.93-1-1.87-2-2.71-3-1.71-2-3.46-4-5.21-6-6.77-8-12.76-16-18.44-24l-4.12-6-3.92-6-3.79-6c-1.24-2-2.42-4-3.63-6q-3.52-6-6.79-12c-2.23-4-4.29-8-6.29-12s-3.89-8-5.74-12-3.57-8-5.24-12.06c-3.38-8-6.38-16.1-9.16-24.19s-5.22-16.22-7.47-24.37c-1.12-4.08-2.19-8.16-3.35-12.23l-3.42-12.2q-27.48-97.52-59.47-192.62c-21.21-63.48-43.81-126.27-67.32-188.6q-17.61-46.74-35.91-93.08l-18.29-46.12-9.08-22.8-4.44-11.19-2.11-5.44-1-2.59c-.17-.43-.31-.84-.44-1.22a4.85,4.85,0,0,1-.18-.54c0-.14-.15-.4,0-.28l123.77,5.54h0c-44.55,59.4-84,122-115.83,187.38s-56,133.67-69.74,203.33a687.58,687.58,0,0,0-12.57,105,625.5,625.5,0,0,0,4.41,104.66,573.66,573.66,0,0,0,22.23,101.31,500.06,500.06,0,0,0,17.89,47.77c3.34,7.68,6.88,15.2,10.55,22.38,1.83,3.59,3.7,7.09,5.55,10.39.92,1.65,1.85,3.25,2.72,4.72l1.25,2.06.51.82.17.27s0,.06,0,0l-.09-.13-.18-.26Z" transform="translate(-800.03 -727.92)"/><path class="cls-3" d="M2413.32,1521.74" transform="translate(-800.03 -727.92)"/><path class="cls-4" d="M914.19,1692.39S1239,2010,1514.57,2082.74L1704.7,2333.6s-5.88-565.43-349.79-661.54" transform="translate(-800.03 -727.92)"/><path class="cls-2" d="M1749.35,2693.17c-.6-.38-1.24-.76-1.8-1.14l-1.66-1.15c-1.09-.77-2.25-1.52-3.23-2.29s-2.06-1.53-3-2.31-2-1.53-2.84-2.31l-2.69-2.33c-.87-.77-1.68-1.56-2.52-2.33-1.74-1.55-3.18-3.13-4.76-4.69a125,125,0,0,1-15.14-19.14c-2-3.25-3.9-6.52-5.61-9.82s-3.17-6.63-4.48-10-2.42-6.76-3.6-10.15l-3.53-10.14c-2.37-6.75-4.82-13.48-7.29-20.18s-4.93-13.4-7.48-20q-7.67-20-15.68-39.65-16.07-39.35-33.77-77.27c-11.82-25.24-24.18-49.94-37.22-73.87-6.53-12-13.21-23.73-20.18-35.23s-14.08-22.77-21.42-33.75-15-21.62-22.91-31.85-16-20.12-24.49-29.52-17.11-18.35-26.12-26.67l-6.8-6.12c-2.26-2-4.61-3.93-6.9-5.91l-1.72-1.47-1.94-1.61-3.94-3.27-7.92-6.47q-15.9-12.84-32.22-25c-10.86-8.09-21.91-15.86-33-23.46q-33.48-22.67-68.7-42.22c-23.51-13.06-47.65-25.06-72.55-36.39-12.46-5.66-25.13-11.14-38-16.58s-26-10.77-39.4-16.2c-26.78-10.85-54.69-21.9-83.81-35.18-14.53-6.68-29.38-13.91-44.31-22.14A467.89,467.89,0,0,1,992,1957.51a387.25,387.25,0,0,1-42.44-34.87,359.13,359.13,0,0,1-37.13-41.14,390,390,0,0,1-30.09-45.06,461.85,461.85,0,0,1-23.31-46.71,596.92,596.92,0,0,1-31.08-94h0L800,1611l93.8-8.34,9.74-.86,9.31-.75c6.18-.49,12.32-.9,18.45-1.31q18.4-1.2,36.72-2t36.64-1.44q18.31-.58,36.62-.89,73.23-1.26,146.53,1.41c97.74,3.63,195.68,12.24,293.54,28.4q18.34,3,36.68,6.46c12.23,2.28,24.45,4.73,36.66,7.26q36.66,7.63,73.31,16.74,18.33,4.56,36.63,9.71c12.2,3.43,24.39,7,36.54,10.94a746.68,746.68,0,0,1,72.37,27q17.88,7.79,35.43,16.9t34.57,19.62q17,10.52,33.34,22.68t31.62,26a379,379,0,0,1,29.21,29.54l3.45,3.91c1.14,1.34,2.25,2.7,3.35,4.06s2.19,2.74,3.25,4.14,2.06,2.87,3.07,4.32,2,2.92,3,4.4,1.87,3,2.78,4.59c1.81,3,3.5,6.24,5.06,9.5.77,1.64,1.59,3.22,2.29,4.9L1966,1863c.64,1.72,1.31,3.39,1.9,5.14l1.65,5.27c.51,1.78,1,3.54,1.45,5.36s.82,3.65,1.21,5.46.71,3.67,1,5.55l.66,5.67.31,2.81c.1.93.09,1.93.14,2.89l.16,5.77c0,1.9-.11,3.92-.2,5.87l-.17,2.93-.32,3q-.15,1.47-.36,3c-.12,1-.31,2-.5,3-.39,2-.71,4-1.23,6-.23,1-.53,2-.79,3s-.66,2.07-1,3.09c-.68,2-1.32,4-2.24,6.15-2.26-.57-4.25-1.23-6.27-1.85l-3-.91c-.95-.32-1.86-.66-2.84-1-3.83-1.22-7.36-2.47-10.8-3.68-6.9-2.41-13.27-4.72-19.21-7s-11.61-4.53-17-6.78l-7.8-3.44-7.43-3.52c-1.24-.57-2.4-1.2-3.58-1.81s-2.41-1.17-3.56-1.79-2.32-1.24-3.44-1.88-2.3-1.24-3.43-1.87-2.23-1.28-3.31-1.95-2.23-1.3-3.32-2-2.16-1.34-3.22-2l-3.26-2q-13.07-8-26.85-15c-18.37-9.47-37.55-17.93-57.28-25.84s-40-15.27-60.61-22.27a1316.32,1316.32,0,0,0-128.11-36.7c-44-10.24-89.16-17.56-134.68-23.74s-91.53-10.9-137.76-14.66c-23.1-1.92-46.28-3.52-69.5-4.93s-46.47-2.56-69.76-3.62q-69.87-2.94-140-3.89l-35-.37-35-.13q-17.49,0-34.9.08l-34.07.3,65.86-93.06h0c8.49,25.09,17.8,49.14,28.62,71.05a355.5,355.5,0,0,0,17.29,31.12,268.06,268.06,0,0,0,19.63,27.26,228.71,228.71,0,0,0,48.14,43.69,335.85,335.85,0,0,0,30.07,18.2c10.78,5.79,22.26,11.41,34.35,16.89,24.16,11,50.66,21.67,78,33.08s55.65,23.53,83.76,37,56.11,28.29,83.32,44.5,53.67,33.81,79.11,52.57,49.86,38.7,73.23,59.54l8.72,7.86,4.33,4,2.18,2,2.34,2.23c3.09,3,6.27,5.9,9.27,8.94s6,6.06,9,9.13c11.81,12.28,22.81,25,33.18,38.07a624.85,624.85,0,0,1,54.58,81.46c7.94,14,15.27,28.19,22.18,42.48,3.46,7.14,6.71,14.35,9.94,21.56l4.73,10.83,4.51,10.89c23.62,58.18,39.94,117.89,51,177.94q4.11,22.53,7.26,45.13c1.06,7.53,2,15.07,3,22.6s1.71,15.09,2.47,22.64l1.09,11.32c.34,3.77.75,7.53.86,11.35a106.22,106.22,0,0,1-9.33,47.43c-1,2-1.85,4.08-3,6.14-.56,1-1.08,2.06-1.67,3.09l-1.86,3.1c-.6,1-1.35,2.08-2,3.12s-1.44,2.08-2.2,3.12-1.63,2.1-2.48,3.15l-1.28,1.57C1750.35,2692.12,1749.83,2692.65,1749.35,2693.17Z" transform="translate(-800.03 -727.92)"/></svg>